<?xml version="1.0" standalone="no"?>
<!DOCTYPE svg PUBLIC "-//W3C//DTD SVG 20010904//EN"
    "http://www.w3.org/TR/2001/REC-SVG-20010904/DTD/svg10.dtd">
<svg version="1.0" xmlns="http://www.w3.org/2000/svg"
    width="507.000000pt" height="507.000000pt" viewBox="0 0 507.000000 507.000000"
    preserveAspectRatio="xMidYMid meet">
<metadata>
Created by potrace 1.10, written by Peter Selinger 2001-2011
</metadata>
<g transform="translate(0.000000,507.000000) scale(0.050000,-0.050000)"
fill="#ffffff" stroke="none">
<path d="M2257 10017 c-1128 -129 -2019 -1038 -2136 -2179 -28 -273 -28 -4123
0 -4396 114 -1108 924 -1982 2013 -2172 261 -46 4497 -45 4758 1 983 171 1745
908 1972 1909 51 221 82 4131 37 4620 -107 1178 -996 2088 -2167 2219 -235 26
-4248 25 -4477 -2z m4603 -825 c599 -167 1052 -620 1200 -1200 52 -207 63
-4431 11 -4674 -119 -562 -547 -1020 -1141 -1221 l-140 -47 -2210 -6 c-2461
-6 -2366 -10 -2686 130 -467 204 -809 607 -936 1102 -58 227 -59 4495 -1 4715
180 685 755 1174 1453 1236 339 30 4329 -1 4450 -35z"/>
<path d="M6665 8535 c-602 -230 -440 -1122 205 -1124 601 -3 795 815 260 1094
-97 51 -365 68 -465 30z"/>
<path d="M4125 7877 c-1332 -191 -2206 -1650 -1773 -2957 591 -1778 3005
-2113 4038 -560 1109 1669 -266 3804 -2265 3517z m778 -828 c690 -177 1181
-933 1060 -1632 -234 -1342 -1942 -1712 -2685 -581 -738 1123 310 2551 1625
2213z"/>
</g>
</svg>